<svg xmlns="http://www.w3.org/2000/svg" width="3300" height="4200" viewBox="0 0 3300 4200">
  <defs>
    <marker id="arr-dark" viewBox="0 0 10 10" refX="9" refY="5" markerWidth="8" markerHeight="8" orient="auto-start-reverse">
      <path d="M 0 0 L 10 5 L 0 10 z" fill="#334155"/>
    </marker>
    <marker id="arr-green" viewBox="0 0 10 10" refX="9" refY="5" markerWidth="8" markerHeight="8" orient="auto-start-reverse">
      <path d="M 0 0 L 10 5 L 0 10 z" fill="#16a34a"/>
    </marker>
    <marker id="arr-amber" viewBox="0 0 10 10" refX="9" refY="5" markerWidth="8" markerHeight="8" orient="auto-start-reverse">
      <path d="M 0 0 L 10 5 L 0 10 z" fill="#ca8a04"/>
    </marker>
    <marker id="arr-blue" viewBox="0 0 10 10" refX="9" refY="5" markerWidth="8" markerHeight="8" orient="auto-start-reverse">
      <path d="M 0 0 L 10 5 L 0 10 z" fill="#0284c7"/>
    </marker>
    <marker id="arr-red" viewBox="0 0 10 10" refX="9" refY="5" markerWidth="8" markerHeight="8" orient="auto-start-reverse">
      <path d="M 0 0 L 10 5 L 0 10 z" fill="#dc2626"/>
    </marker>
    <marker id="arr-purple" viewBox="0 0 10 10" refX="9" refY="5" markerWidth="8" markerHeight="8" orient="auto-start-reverse">
      <path d="M 0 0 L 10 5 L 0 10 z" fill="#7c3aed"/>
    </marker>
    <style>
      .title { font: 800 44px -apple-system,BlinkMacSystemFont,"PingFang SC","Microsoft YaHei",sans-serif; fill:#0f172a; }
      .subtitle { font: 400 20px -apple-system,BlinkMacSystemFont,"PingFang SC","Microsoft YaHei",sans-serif; fill:#475569; }
      .section-title { font: 800 27px -apple-system,BlinkMacSystemFont,"PingFang SC","Microsoft YaHei",sans-serif; fill:#0f172a; }
      .h1 { font: 800 24px -apple-system,BlinkMacSystemFont,"PingFang SC","Microsoft YaHei",sans-serif; fill:#0f172a; }
      .h2 { font: 800 20px -apple-system,BlinkMacSystemFont,"PingFang SC","Microsoft YaHei",sans-serif; fill:#0f172a; }
      .h3 { font: 700 17px -apple-system,BlinkMacSystemFont,"PingFang SC","Microsoft YaHei",sans-serif; fill:#0f172a; }
      .body { font: 400 17px -apple-system,BlinkMacSystemFont,"PingFang SC","Microsoft YaHei",sans-serif; fill:#475569; }
      .small { font: 500 15px -apple-system,BlinkMacSystemFont,"PingFang SC","Microsoft YaHei",sans-serif; fill:#334155; }
      .tiny { font: 600 13px -apple-system,BlinkMacSystemFont,"PingFang SC","Microsoft YaHei",sans-serif; fill:#334155; }
      .mono { font: 500 14px "Menlo","Consolas","PingFang SC",monospace; fill:#334155; }
      .panel { fill:#ffffff; stroke:#dbe4ee; stroke-width:2; }
      .section { fill:#f8fafc; stroke:#cbd5e1; stroke-width:2; }
      .business { fill:#f0fdf4; stroke:#16a34a; stroke-width:2.4; }
      .data { fill:#fefce8; stroke:#ca8a04; stroke-width:2.4; }
      .runtime { fill:#fff7ed; stroke:#f97316; stroke-width:2.7; }
      .execution { fill:#fef2f2; stroke:#ef4444; stroke-width:2.4; }
      .blue { fill:#f0f9ff; stroke:#0284c7; stroke-width:2.3; }
      .purple { fill:#f5f3ff; stroke:#7c3aed; stroke-width:2.3; }
      .gray { fill:#f8fafc; stroke:#64748b; stroke-width:2; }
      .contract { fill:#ffffff; stroke:#94a3b8; stroke-width:1.6; }
      .chip { fill:#e0f2fe; stroke:#0284c7; stroke-width:1.4; }
      .green-chip { fill:#dcfce7; stroke:#16a34a; stroke-width:1.4; }
      .amber-chip { fill:#fef3c7; stroke:#ca8a04; stroke-width:1.4; }
      .red-chip { fill:#fee2e2; stroke:#ef4444; stroke-width:1.4; }
      .purple-chip { fill:#ede9fe; stroke:#7c3aed; stroke-width:1.4; }
      .orange-chip { fill:#ffedd5; stroke:#f97316; stroke-width:1.4; }
      .slate-chip { fill:#f1f5f9; stroke:#64748b; stroke-width:1.3; }
      .callout { fill:#ffffff; fill-opacity:0.92; stroke-opacity:0.76; }
      .line-dark { stroke:#334155; stroke-width:3.2; fill:none; marker-end:url(#arr-dark); }
      .line-green { stroke:#16a34a; stroke-width:3.5; fill:none; marker-end:url(#arr-green); }
      .line-amber { stroke:#ca8a04; stroke-width:3.5; fill:none; marker-end:url(#arr-amber); }
      .line-blue { stroke:#0284c7; stroke-width:3.5; fill:none; marker-end:url(#arr-blue); }
      .line-red { stroke:#dc2626; stroke-width:3.5; fill:none; marker-end:url(#arr-red); }
      .line-purple { stroke:#7c3aed; stroke-width:3.5; fill:none; marker-end:url(#arr-purple); }
      .dash-dark { stroke:#64748b; stroke-width:2.4; stroke-dasharray:8 7; fill:none; marker-end:url(#arr-dark); }
      .dash-blue { stroke:#0284c7; stroke-width:2.7; stroke-dasharray:10 7; fill:none; marker-end:url(#arr-blue); }
      .dash-purple { stroke:#7c3aed; stroke-width:2.7; stroke-dasharray:10 7; fill:none; marker-end:url(#arr-purple); }
      .dash-red { stroke:#dc2626; stroke-width:2.4; stroke-dasharray:8 6; fill:none; marker-end:url(#arr-red); }
      .nav-num { font: 800 17px -apple-system,BlinkMacSystemFont,"PingFang SC","Microsoft YaHei",sans-serif; fill:#ffffff; }
      .loop-label { font: 800 24px -apple-system,BlinkMacSystemFont,"PingFang SC","Microsoft YaHei",sans-serif; fill:#0f172a; }
    </style>
  </defs>

  <rect x="24" y="24" width="3252" height="4152" rx="32" class="panel"/>

  <text x="1650" y="78" text-anchor="middle" class="title">FMCG 企业现有系统之上的 AI Decision Operating Layer  · 第四版</text>
  <text x="1650" y="114" text-anchor="middle" class="subtitle">主系统：Decision Execution Loop；支撑体系：Temporal Runtime / Governance / Scenario Proof</text>

  <!-- Reading guide -->
  <rect x="120" y="146" width="3060" height="70" rx="20" fill="#f8fafc" stroke="#cbd5e1" stroke-width="1.8"/>
  <rect x="170" y="164" width="34" height="34" rx="17" fill="#f97316"/>
  <text x="187" y="187" text-anchor="middle" class="nav-num">1</text>
  <text x="226" y="187" class="small">主系统：运行闭环</text>
  <rect x="620" y="164" width="34" height="34" rx="17" fill="#0284c7"/>
  <text x="637" y="187" text-anchor="middle" class="nav-num">2</text>
  <text x="676" y="187" class="small">支撑体系：Temporal Runtime</text>
  <rect x="1180" y="164" width="34" height="34" rx="17" fill="#64748b"/>
  <text x="1197" y="187" text-anchor="middle" class="nav-num">3</text>
  <text x="1236" y="187" class="small">支撑体系：Governance / Audit / Replay</text>
  <rect x="2050" y="164" width="34" height="34" rx="17" fill="#7c3aed"/>
  <text x="2067" y="187" text-anchor="middle" class="nav-num">4</text>
  <text x="2106" y="187" class="small">支撑体系：Scenario Proof</text>
  <text x="2940" y="187" text-anchor="middle" class="tiny" fill="#64748b">主系统：Loop；支撑体系：Temporal Runtime / Governance / Scenario</text>

  <!-- ============================================================ -->
  <!-- 1. MAIN OPERATING LOOP -->
  <!-- ============================================================ -->
  <rect x="60" y="250" width="3180" height="1220" rx="28" fill="#fff7ed" stroke="#f97316" stroke-width="2.6"/>
  <text x="140" y="306" class="section-title" fill="#c2410c">1. 主系统：Decision Execution Loop</text>
  <text x="140" y="338" class="body" fill="#7c2d12">主线：Observe → Understand → Decide → Execute → Learn。系统边界、契约和治理能力沿这条链路组织。</text>

  <!-- Enterprise boundary -->
  <rect x="120" y="375" width="3060" height="175" rx="20" fill="#f0f9ff" stroke="#0284c7" stroke-width="2"/>
  <text x="1650" y="412" text-anchor="middle" class="h2" fill="#0369a1">企业现有系统边界：权威职责留在原系统</text>
  <rect x="160" y="438" width="700" height="80" rx="13" class="business"/>
  <text x="510" y="466" text-anchor="middle" class="h3" fill="#15803d">业务中台</text>
  <text x="510" y="492" text-anchor="middle" class="small">对象、主数据、业务规则、微服务 API</text>
  <rect x="900" y="438" width="700" height="80" rx="13" class="data"/>
  <text x="1250" y="466" text-anchor="middle" class="h3" fill="#92400e">数据中台</text>
  <text x="1250" y="492" text-anchor="middle" class="small">Catalog、Pipeline、Gateway、指标、质量、血缘、权限</text>
  <rect x="1640" y="438" width="700" height="80" rx="13" class="execution"/>
  <text x="1990" y="466" text-anchor="middle" class="h3" fill="#dc2626">业务应用与执行系统</text>
  <text x="1990" y="492" text-anchor="middle" class="small">拜访、订货、库存、发货、排产、促销、任务状态</text>
  <rect x="2380" y="438" width="760" height="80" rx="13" class="purple"/>
  <text x="2760" y="466" text-anchor="middle" class="h3" fill="#6d28d9">企业治理底座</text>
  <text x="2760" y="492" text-anchor="middle" class="small">IAM、API Gateway、Event Bus、Workflow、APM、Audit</text>

  <!-- Main loop nodes -->
  <rect x="120" y="610" width="560" height="250" rx="20" class="business"/>
  <text x="400" y="654" text-anchor="middle" class="loop-label" fill="#15803d">Observe</text>
  <text x="400" y="688" text-anchor="middle" class="h2">业务信号与对象锚点</text>
  <text x="160" y="725" class="small">对象：store / sku / distributor / promotion</text>
  <text x="160" y="752" class="small">事件：评分异常、库存风险、价格偏差</text>
  <text x="160" y="779" class="small">来源：业务中台 + 数据中台 + 执行回执</text>
  <rect x="160" y="810" width="210" height="28" rx="9" class="green-chip"/>
  <text x="265" y="829" text-anchor="middle" class="tiny" fill="#15803d">Object Contract</text>

  <path d="M 680 735 L 770 735" class="line-dark"/>

  <rect x="770" y="610" width="560" height="250" rx="20" class="data"/>
  <text x="1050" y="654" text-anchor="middle" class="loop-label" fill="#92400e">Understand</text>
  <text x="1050" y="688" text-anchor="middle" class="h2">证据组装与语境构建</text>
  <text x="810" y="725" class="small">经 Catalog + Gateway 读取事实</text>
  <text x="810" y="752" class="small">校验质量、时效、权限、血缘和对象映射</text>
  <text x="810" y="779" class="small">形成可引用、可复现的 evidence package</text>
  <rect x="810" y="810" width="220" height="28" rx="9" class="amber-chip"/>
  <text x="920" y="829" text-anchor="middle" class="tiny" fill="#92400e">Evidence Contract</text>

  <path d="M 1330 735 L 1420 735" class="line-dark"/>

  <rect x="1420" y="570" width="640" height="330" rx="24" fill="#ffedd5" stroke="#f97316" stroke-width="4.2"/>
  <text x="1740" y="626" text-anchor="middle" class="loop-label" fill="#c2410c">Decide</text>
  <text x="1740" y="660" text-anchor="middle" class="h2" fill="#c2410c">AI Decision Operating Layer</text>
  <text x="1465" y="694" class="small">决策由证据、策略、置信度、审批阈值和状态迁移共同约束。</text>
  <text x="1465" y="722" class="small">模型负责归因和说明；动作由规则、门禁、状态机约束。</text>
  <rect x="1465" y="752" width="250" height="34" rx="10" class="amber-chip"/>
  <text x="1590" y="774" text-anchor="middle" class="tiny" fill="#92400e">Candidate Generation</text>
  <rect x="1745" y="752" width="250" height="34" rx="10" class="amber-chip"/>
  <text x="1870" y="774" text-anchor="middle" class="tiny" fill="#92400e">Evidence Scoring</text>
  <rect x="1465" y="798" width="250" height="34" rx="10" class="orange-chip"/>
  <text x="1590" y="820" text-anchor="middle" class="tiny" fill="#c2410c">Policy Evaluation</text>
  <rect x="1745" y="798" width="250" height="34" rx="10" class="chip"/>
  <text x="1870" y="820" text-anchor="middle" class="tiny" fill="#0369a1">Confidence Check</text>
  <rect x="1465" y="844" width="250" height="34" rx="10" class="purple-chip"/>
  <text x="1590" y="866" text-anchor="middle" class="tiny" fill="#6d28d9">Approval Threshold</text>
  <rect x="1745" y="844" width="250" height="34" rx="10" class="slate-chip"/>
  <text x="1870" y="866" text-anchor="middle" class="tiny" fill="#475569">Escalation / Dispatch</text>

  <path d="M 2060 735 L 2150 735" class="line-dark"/>

  <rect x="2150" y="610" width="560" height="250" rx="20" class="execution"/>
  <text x="2430" y="654" text-anchor="middle" class="loop-label" fill="#dc2626">Execute</text>
  <text x="2430" y="688" text-anchor="middle" class="h2">动作派发与执行回收</text>
  <text x="2190" y="725" class="small">结构化动作进入 SFA / DMS / WMS / MES</text>
  <text x="2190" y="752" class="small">携带验收标准、截止时间、幂等键、SLA</text>
  <text x="2190" y="779" class="small">外部系统返回 accepted / rejected / executed / expired</text>
  <rect x="2190" y="810" width="210" height="28" rx="9" class="red-chip"/>
  <text x="2295" y="829" text-anchor="middle" class="tiny" fill="#dc2626">Action Contract</text>

  <path d="M 2710 735 L 2800 735" class="line-dark"/>

  <rect x="2800" y="610" width="380" height="250" rx="20" class="purple"/>
  <text x="2990" y="654" text-anchor="middle" class="loop-label" fill="#6d28d9">Learn</text>
  <text x="2990" y="688" text-anchor="middle" class="h2">Learning Optimizer</text>
  <text x="2830" y="725" class="small">回收结果、拒绝原因、效果指标</text>
  <text x="2830" y="752" class="small">Policy Tuning / Evaluation Feedback</text>
  <text x="2830" y="779" class="small">Routing Optimization / Capability Scoring</text>
  <rect x="2830" y="810" width="250" height="28" rx="9" class="purple-chip"/>
  <text x="2955" y="829" text-anchor="middle" class="tiny" fill="#6d28d9">Next-round Optimization</text>

  <path d="M 2990 860 C 2990 975 400 975 400 860" class="dash-purple"/>
  <rect x="1320" y="954" width="660" height="38" rx="11" class="callout" stroke="#7c3aed" stroke-width="1.2"/>
  <text x="1650" y="979" text-anchor="middle" class="tiny" fill="#6d28d9">Knowledge feedback does not rewrite history: 决策绑定生成时的知识版本，历史按原版本回放</text>

  <!-- Abstract contracts and state -->
  <rect x="120" y="1040" width="3060" height="360" rx="22" fill="#ffffff" stroke="#fed7aa" stroke-width="1.8"/>
  <text x="1650" y="1082" text-anchor="middle" class="h2" fill="#c2410c">抽象运行契约 + 统一状态模型</text>

  <rect x="170" y="1120" width="330" height="104" rx="15" class="business"/>
  <text x="335" y="1152" text-anchor="middle" class="h3" fill="#15803d">Object</text>
  <text x="335" y="1180" text-anchor="middle" class="tiny">对象锚点 / 主数据映射</text>
  <text x="335" y="1204" text-anchor="middle" class="mono">object_id / master_id</text>

  <rect x="530" y="1120" width="330" height="104" rx="15" class="data"/>
  <text x="695" y="1152" text-anchor="middle" class="h3" fill="#92400e">Evidence</text>
  <text x="695" y="1180" text-anchor="middle" class="tiny">事实证据 / 质量时效</text>
  <text x="695" y="1204" text-anchor="middle" class="mono">dataset_id / lineage</text>

  <rect x="890" y="1120" width="330" height="104" rx="15" class="runtime"/>
  <text x="1055" y="1152" text-anchor="middle" class="h3" fill="#c2410c">Decision</text>
  <text x="1055" y="1180" text-anchor="middle" class="tiny">核心运行产物</text>
  <text x="1055" y="1204" text-anchor="middle" class="mono">decision_id / trace_id</text>

  <rect x="1250" y="1120" width="330" height="104" rx="15" class="execution"/>
  <text x="1415" y="1152" text-anchor="middle" class="h3" fill="#dc2626">Action</text>
  <text x="1415" y="1180" text-anchor="middle" class="tiny">可派发业务动作</text>
  <text x="1415" y="1204" text-anchor="middle" class="mono">action_id / idempotency</text>

  <rect x="1610" y="1120" width="330" height="104" rx="15" class="purple"/>
  <text x="1775" y="1152" text-anchor="middle" class="h3" fill="#6d28d9">Feedback</text>
  <text x="1775" y="1180" text-anchor="middle" class="tiny">回调与知识版本</text>
  <text x="1775" y="1204" text-anchor="middle" class="mono">event_type / kv</text>

  <rect x="2000" y="1120" width="1040" height="104" rx="15" class="blue"/>
  <text x="2520" y="1152" text-anchor="middle" class="h3" fill="#0369a1">Decision State Machine</text>
  <text x="2520" y="1180" text-anchor="middle" class="mono">created → reviewed → dispatched → executed</text>
  <text x="2520" y="1204" text-anchor="middle" class="mono">rejected / expired / timeout / failed / overridden</text>

  <rect x="170" y="1260" width="2870" height="80" rx="15" fill="#f8fafc" stroke="#cbd5e1" stroke-width="1.4"/>
  <text x="330" y="1292" text-anchor="middle" class="h3">边界原则</text>
  <text x="520" y="1292" class="small">Workflow = 人审、审批、升级、人工接管</text>
  <text x="1150" y="1292" class="small">Decision Layer = 证据、编排、状态机、审计、回放</text>
  <text x="1960" y="1292" class="small">Execution Systems = 执行动作、保留业务状态权威、返回回执</text>
  <text x="520" y="1320" class="small" fill="#64748b">AI consumes registered capabilities only; AI does not own master data, transaction state, or execution authority.</text>

  <!-- ============================================================ -->
  <!-- 2. AI RUNTIME -->
  <!-- ============================================================ -->
  <rect x="60" y="1510" width="3180" height="845" rx="28" fill="#f0f9ff" stroke="#0284c7" stroke-width="2.4"/>
  <text x="140" y="1566" class="section-title" fill="#0369a1">2. 支撑体系：Temporal Runtime</text>
  <text x="140" y="1598" class="body" fill="#075985">一次决策请求经过检查点、异步恢复、任务图、上下文、策略、模型、工具、派发、回调和状态机。</text>

  <rect x="120" y="1640" width="3060" height="430" rx="22" fill="#ffffff" stroke="#7dd3fc" stroke-width="1.8"/>
  <text x="1650" y="1680" text-anchor="middle" class="h2" fill="#0369a1">AI Temporal Runtime Pipeline</text>

  <rect x="160" y="1730" width="315" height="170" rx="16" class="chip"/>
  <text x="318" y="1764" text-anchor="middle" class="h3">1. Request</text>
  <text x="318" y="1794" text-anchor="middle" class="tiny">object + event + intent</text>
  <text x="318" y="1822" text-anchor="middle" class="mono">trace_id / actor / scope</text>
  <text x="318" y="1850" text-anchor="middle" class="small">能力路由与租户隔离</text>

  <path d="M 475 1815 L 530 1815" class="line-blue"/>
  <rect x="530" y="1730" width="315" height="170" rx="16" class="green-chip"/>
  <text x="688" y="1764" text-anchor="middle" class="h3">2. Context Build</text>
  <text x="688" y="1794" text-anchor="middle" class="tiny">evidence + policy + runtime context</text>
  <text x="688" y="1822" text-anchor="middle" class="mono">context_window / ttl</text>
  <text x="688" y="1850" text-anchor="middle" class="small">读取授权事实与知识版本</text>

  <path d="M 845 1815 L 900 1815" class="line-blue"/>
  <rect x="900" y="1730" width="315" height="170" rx="16" class="orange-chip"/>
  <text x="1058" y="1764" text-anchor="middle" class="h3">3. Policy Evaluation</text>
  <text x="1058" y="1794" text-anchor="middle" class="tiny">rule + risk + gate</text>
  <text x="1058" y="1822" text-anchor="middle" class="mono">threshold / approval</text>
  <text x="1058" y="1850" text-anchor="middle" class="small">判定推理与派发门禁</text>

  <path d="M 1215 1815 L 1270 1815" class="line-blue"/>
  <rect x="1270" y="1730" width="315" height="170" rx="16" class="purple-chip"/>
  <text x="1428" y="1764" text-anchor="middle" class="h3">4. Model Routing</text>
  <text x="1428" y="1794" text-anchor="middle" class="tiny">quality / latency / cost</text>
  <text x="1428" y="1822" text-anchor="middle" class="mono">model_id / fallback</text>
  <text x="1428" y="1850" text-anchor="middle" class="small">按预算选择模型或规则路径</text>

  <path d="M 1585 1815 L 1640 1815" class="line-blue"/>
  <rect x="1640" y="1730" width="315" height="170" rx="16" class="amber-chip"/>
  <text x="1798" y="1764" text-anchor="middle" class="h3">5. Tool Planning</text>
  <text x="1798" y="1794" text-anchor="middle" class="tiny">registered tools only</text>
  <text x="1798" y="1822" text-anchor="middle" class="mono">schema / allowlist</text>
  <text x="1798" y="1850" text-anchor="middle" class="small">生成结构化动作</text>

  <path d="M 1955 1815 L 2010 1815" class="line-blue"/>
  <rect x="2010" y="1730" width="315" height="170" rx="16" class="red-chip"/>
  <text x="2168" y="1764" text-anchor="middle" class="h3">6. Dispatch</text>
  <text x="2168" y="1794" text-anchor="middle" class="tiny">adapter + workflow</text>
  <text x="2168" y="1822" text-anchor="middle" class="mono">idempotency / retry</text>
  <text x="2168" y="1850" text-anchor="middle" class="small">高风险进入 HITL Queue</text>

  <path d="M 2325 1815 L 2380 1815" class="line-blue"/>
  <rect x="2380" y="1730" width="315" height="170" rx="16" class="slate-chip"/>
  <text x="2538" y="1764" text-anchor="middle" class="h3">7. Callback</text>
  <text x="2538" y="1794" text-anchor="middle" class="tiny">event bus + receipt</text>
  <text x="2538" y="1822" text-anchor="middle" class="mono">accepted / rejected</text>
  <text x="2538" y="1850" text-anchor="middle" class="small">执行系统返回回执</text>

  <path d="M 2695 1815 L 2750 1815" class="line-blue"/>
  <rect x="2750" y="1730" width="315" height="170" rx="16" class="blue"/>
  <text x="2908" y="1764" text-anchor="middle" class="h3">8. State Transition</text>
  <text x="2908" y="1794" text-anchor="middle" class="tiny">decision state machine</text>
  <text x="2908" y="1822" text-anchor="middle" class="mono">reviewed / executed</text>
  <text x="2908" y="1850" text-anchor="middle" class="small">回调驱动状态迁移</text>

  <rect x="200" y="1935" width="2860" height="80" rx="15" fill="#f8fafc" stroke="#94a3b8" stroke-width="1.4"/>
  <text x="1630" y="1968" text-anchor="middle" class="h3" fill="#334155">Control Plane runs across every step</text>
  <text x="1630" y="1998" text-anchor="middle" class="small">IAM / RBAC · Data Masking · Evaluation · Observability · Cost Attribution · Release Guard · Audit · Replay Request</text>

  <rect x="120" y="2110" width="940" height="110" rx="16" class="contract"/>
  <text x="590" y="2144" text-anchor="middle" class="h3">Temporal Runtime</text>
  <text x="590" y="2174" text-anchor="middle" class="small">长运行任务支持检查点保存、暂停恢复、异步续跑和任务图编排。</text>
  <text x="590" y="2202" text-anchor="middle" class="mono">Checkpoint / Async Resume / Task Graph / Pause-Resume</text>

  <rect x="1180" y="2110" width="940" height="110" rx="16" class="contract"/>
  <text x="1650" y="2144" text-anchor="middle" class="h3">Knowledge Runtime</text>
  <text x="1650" y="2174" text-anchor="middle" class="small">推理时绑定本体映射、检索策略、版本知识和反馈候选。</text>
  <text x="1650" y="2202" text-anchor="middle" class="mono">Ontology Linkage / Retrieval Strategy / Versioned Knowledge / Feedback Candidate</text>

  <rect x="2240" y="2110" width="940" height="110" rx="16" class="contract"/>
  <text x="2710" y="2144" text-anchor="middle" class="h3">Capability Runtime</text>
  <text x="2710" y="2174" text-anchor="middle" class="small">注册能力按可靠性、成本、时延和风险门禁调度；异常时降级或人工接管。</text>
  <text x="2710" y="2202" text-anchor="middle" class="mono">capability_route / breaker / fallback / manual_override</text>

  <!-- ============================================================ -->
  <!-- 3. GOVERNANCE / AUDIT / REPLAY -->
  <!-- ============================================================ -->
  <rect x="60" y="2395" width="3180" height="710" rx="28" fill="#f8fafc" stroke="#64748b" stroke-width="2.4"/>
  <text x="140" y="2451" class="section-title" fill="#334155">3. 支撑体系：Governance / Audit / Replay</text>
  <text x="140" y="2483" class="body">运行对象记录证据引用、版本绑定、审批链、幂等键和轨迹回放。</text>

  <rect x="120" y="2525" width="3060" height="190" rx="20" fill="#ffffff" stroke="#cbd5e1" stroke-width="1.6"/>
  <text x="1650" y="2564" text-anchor="middle" class="h2">不可变运行记录：Decision Ledger</text>
  <rect x="160" y="2594" width="540" height="78" rx="12" class="contract"/>
  <text x="430" y="2622" text-anchor="middle" class="mono">decision_id=dec-20260512-289123888</text>
  <text x="430" y="2648" text-anchor="middle" class="mono">object_id=store:289123888</text>
  <rect x="730" y="2594" width="540" height="78" rx="12" class="contract"/>
  <text x="1000" y="2622" text-anchor="middle" class="mono">knowledge_version=kv-store-2026-05</text>
  <text x="1000" y="2648" text-anchor="middle" class="mono">trace_id=tr-20260512-2891</text>
  <rect x="1300" y="2594" width="720" height="78" rx="12" class="contract"/>
  <text x="1660" y="2622" text-anchor="middle" class="mono">evidence_ref=[pf-store-daily:03:47Z, sfa-visit, image-score]</text>
  <text x="1660" y="2648" text-anchor="middle" class="mono">rationale_ref=dr-2891, quality_flag=pass</text>
  <rect x="2050" y="2594" width="500" height="78" rx="12" class="contract"/>
  <text x="2300" y="2622" text-anchor="middle" class="mono">action_id=SFA-T9921</text>
  <text x="2300" y="2648" text-anchor="middle" class="mono">idempotency_key=store:display:2026W20</text>
  <rect x="2580" y="2594" width="540" height="78" rx="12" class="contract"/>
  <text x="2850" y="2622" text-anchor="middle" class="mono">callback=executed + photo_id=P8821</text>
  <text x="2850" y="2648" text-anchor="middle" class="mono">feedback=accepted, score_after=85%</text>

  <rect x="120" y="2750" width="980" height="270" rx="20" class="blue"/>
  <text x="610" y="2788" text-anchor="middle" class="h2" fill="#0369a1">Audit Timeline</text>
  <text x="180" y="2830" class="small">1. capability_registered：对象、证据、动作入口、反馈通道齐备</text>
  <text x="180" y="2860" class="small">2. evidence_loaded：质量、时效、权限、血缘校验通过</text>
  <text x="180" y="2890" class="small">3. decision_created：规则命中，生成 Decision Rationale</text>
  <text x="180" y="2920" class="small">4. approval_reviewed：高风险进入 HITL，审批快照留存</text>
  <text x="180" y="2950" class="small">5. action_dispatched：动作带幂等键和验收标准进入执行系统</text>
  <text x="180" y="2980" class="small">6. callback_received：执行回执驱动状态迁移</text>

  <rect x="1160" y="2750" width="980" height="270" rx="20" class="purple"/>
  <text x="1650" y="2788" text-anchor="middle" class="h2" fill="#6d28d9">Replay / Simulation</text>
  <text x="1220" y="2830" class="small">回放条件：same evidence + same knowledge version + same policy gate。</text>
  <text x="1220" y="2860" class="small">回放目标：复现结果、定位差异、检查 Evidence-linked Explanation。</text>
  <text x="1220" y="2890" class="small">演练目标：新规则上线前，用历史样本对比 old / new rule impact。</text>
  <text x="1220" y="2920" class="small">版本原则：修订、撤回、回滚都生成新版本；历史决策不改写。</text>
  <rect x="1220" y="2950" width="820" height="38" rx="11" class="purple-chip"/>
  <text x="1630" y="2975" text-anchor="middle" class="tiny" fill="#6d28d9">历史结果按生成时知识版本解释；新知识只影响下一轮决策</text>

  <rect x="2200" y="2750" width="980" height="270" rx="20" class="execution"/>
  <text x="2690" y="2788" text-anchor="middle" class="h2" fill="#dc2626">Failure Control</text>
  <text x="2260" y="2830" class="small">证据过期 / 质量不达标 → 降级为低置信度，阻断自动派发</text>
  <text x="2260" y="2860" class="small">Schema 校验失败 → 阻断生成，进入人工审查队列</text>
  <text x="2260" y="2890" class="small">模型超时 / 错误率飙升 → Circuit Breaker 切换纯规则路径</text>
  <text x="2260" y="2920" class="small">动作派发失败 → 重试 3 次 → DLQ → 人工接管</text>
  <text x="2260" y="2950" class="small">执行超时 / 拒绝 → 状态 timeout / rejected，触发升级</text>
  <text x="2260" y="2980" class="small">高风险未经 HITL → 门禁阻断，不允许自动派发</text>

  <!-- ============================================================ -->
  <!-- 4. BUSINESS SCENARIO -->
  <!-- ============================================================ -->
  <rect x="60" y="3145" width="3180" height="830" rx="28" fill="#f5f3ff" stroke="#7c3aed" stroke-width="2.4"/>
  <text x="140" y="3201" class="section-title" fill="#6d28d9">4. 支撑体系：Scenario Proof · 完美门店异常诊断</text>
  <text x="140" y="3233" class="body" fill="#5b21b6">新场景上线 = 注册能力 + 通过上线门禁 + 复用状态机、审计和回放。</text>

  <rect x="120" y="3278" width="400" height="190" rx="18" class="business"/>
  <text x="320" y="3314" text-anchor="middle" class="h2" fill="#15803d">1. Signal</text>
  <text x="160" y="3350" class="small">门店中心 03:00 生成完美门店评分。</text>
  <text x="160" y="3378" class="small">store_id=289123888</text>
  <text x="160" y="3406" class="small">陈列达标率 67%，低于 KA 阈值。</text>
  <text x="160" y="3434" class="small" fill="#15803d">输出：对象锚点 + 业务事件。</text>
  <path d="M 520 3375 L 575 3375" class="line-dark"/>

  <rect x="575" y="3278" width="400" height="190" rx="18" class="data"/>
  <text x="775" y="3314" text-anchor="middle" class="h2" fill="#92400e">2. Evidence</text>
  <text x="615" y="3350" class="small">数据流水线刷新指标视图。</text>
  <text x="615" y="3378" class="small">data_as_of_time=03:47Z</text>
  <text x="615" y="3406" class="small">Catalog 校验 Schema、权限、质量。</text>
  <text x="615" y="3434" class="small" fill="#92400e">输出：可消费证据包。</text>
  <path d="M 975 3375 L 1030 3375" class="line-dark"/>

  <rect x="1030" y="3278" width="400" height="190" rx="18" class="blue"/>
  <text x="1230" y="3314" text-anchor="middle" class="h2" fill="#0369a1">3. Decision</text>
  <text x="1070" y="3350" class="small">运行层映射门店、SKU、经销商。</text>
  <text x="1070" y="3378" class="small">命中陈列阈值规则。</text>
  <text x="1070" y="3406" class="small">模型只做原因归因和说明。</text>
  <text x="1070" y="3434" class="small" fill="#0369a1">输出：结构化决策。</text>
  <path d="M 1430 3375 L 1485 3375" class="line-dark"/>

  <rect x="1485" y="3278" width="400" height="190" rx="18" class="purple"/>
  <text x="1685" y="3314" text-anchor="middle" class="h2" fill="#6d28d9">4. Approval</text>
  <text x="1525" y="3350" class="small">风险等级决定 HITL。</text>
  <text x="1525" y="3378" class="small">主管确认后进入 reviewed。</text>
  <text x="1525" y="3406" class="small">低风险可自动派发。</text>
  <text x="1525" y="3434" class="small" fill="#6d28d9">输出：可下发动作。</text>
  <path d="M 1885 3375 L 1940 3375" class="line-dark"/>

  <rect x="1940" y="3278" width="400" height="190" rx="18" class="execution"/>
  <text x="2140" y="3314" text-anchor="middle" class="h2" fill="#dc2626">5. Dispatch</text>
  <text x="1980" y="3350" class="small">SFA 接收结构化任务。</text>
  <text x="1980" y="3378" class="small">task_id=SFA-T9921</text>
  <text x="1980" y="3406" class="small">48h 整改陈列并补照片。</text>
  <text x="1980" y="3434" class="small" fill="#dc2626">状态：dispatched。</text>
  <path d="M 2340 3375 L 2395 3375" class="line-dark"/>

  <rect x="2395" y="3278" width="400" height="190" rx="18" class="blue"/>
  <text x="2595" y="3314" text-anchor="middle" class="h2" fill="#0369a1">6. Execution</text>
  <text x="2435" y="3350" class="small">业务员完成整改。</text>
  <text x="2435" y="3378" class="small">event_type=executed</text>
  <text x="2435" y="3406" class="small">photo_id=P8821，陈列恢复 85%。</text>
  <text x="2435" y="3434" class="small" fill="#0369a1">状态：executed。</text>
  <path d="M 2795 3375 L 2850 3375" class="line-dark"/>

  <rect x="2850" y="3278" width="310" height="190" rx="18" class="purple"/>
  <text x="3005" y="3314" text-anchor="middle" class="h2" fill="#6d28d9">7. Learning</text>
  <text x="2885" y="3350" class="small">Optimizer 识别拒绝模式。</text>
  <text x="2885" y="3378" class="small">Policy Tuning 候选修订。</text>
  <text x="2885" y="3406" class="small">Evaluation Feedback 进入评估集。</text>
  <text x="2885" y="3434" class="small" fill="#6d28d9">优化下一轮，不改历史。</text>

  <path d="M 3005 3468 C 3005 3565 320 3565 320 3468" class="dash-purple"/>
  <rect x="1290" y="3538" width="720" height="38" rx="11" class="callout" stroke="#7c3aed" stroke-width="1.2"/>
  <text x="1650" y="3563" text-anchor="middle" class="tiny" fill="#6d28d9">反馈推动知识版本受控演进；新版本只影响下一轮决策，历史结果按旧版本回放</text>

  <rect x="120" y="3628" width="1460" height="145" rx="18" fill="#ffffff" stroke="#16a34a" stroke-width="1.5"/>
  <text x="850" y="3664" text-anchor="middle" class="h2" fill="#15803d">场景 A：完美门店异常诊断</text>
  <text x="850" y="3696" text-anchor="middle" class="small">Object=store | Evidence=完美门店评分+拜访+图片 | Rule=陈列阈值 | Action=SFA 整改任务 | Feedback=照片+评分</text>
  <text x="850" y="3728" text-anchor="middle" class="small" fill="#475569">展开主闭环、Temporal Runtime、治理审计和失败控制的端到端样例。</text>

  <rect x="1720" y="3628" width="1460" height="145" rx="18" fill="#ffffff" stroke="#ca8a04" stroke-width="1.5"/>
  <text x="2450" y="3664" text-anchor="middle" class="h2" fill="#92400e">场景 B：促销 ROI 异常诊断</text>
  <text x="2450" y="3696" text-anchor="middle" class="small">Object=promotion | Evidence=动销+成本+竞品 | Rule=ROI 阈值 | Action=促销调整审批 | Feedback=ROI 回升</text>
  <text x="2450" y="3728" text-anchor="middle" class="small" fill="#475569">复用状态机、审计、门禁和回放；按场景配置对象、证据、规则、动作映射。</text>

  <rect x="120" y="3798" width="3060" height="112" rx="18" fill="#fff7ed" stroke="#f97316" stroke-width="1.6"/>
  <text x="1650" y="3838" text-anchor="middle" class="h2" fill="#c2410c">落地阶段</text>
  <text x="1650" y="3874" text-anchor="middle" class="small" fill="#c2410c">观察模式（只看不动）→ 人审后派发 → 低风险自动派发 → 闭环优化</text>

  <!-- Footer -->
  <rect x="60" y="3995" width="3180" height="130" rx="22" fill="#f8fafc" stroke="#cbd5e1" stroke-width="1.8"/>
  <text x="1650" y="4044" text-anchor="middle" class="h2" fill="#334155">运行对象</text>
  <text x="1650" y="4080" text-anchor="middle" class="small" fill="#475569">AI 输出转化为带 Schema、证据、状态、审批、幂等、审计和版本绑定的企业运行对象。</text>
  <text x="1650" y="4110" text-anchor="middle" class="tiny" fill="#64748b">运营角色：业务负责人 · 数据负责人 · 知识负责人 · AI 运维 · 平台工程</text>
</svg>
